

Download this torrent (magnet link)
Add this torrent to personal RSS
  http://www.imdb.com/title/tt1179056/

Plot
A re-imagining of the horror icon Freddy Krueger, a serial-killer who wields a glove with four blades embedded in the fingers and kills people in their dreams, resulting in their real death in reality.

Source :p2p
General
Complete name : A.Nightmare.on.Elm.Street.2010.Cam.XviD-TA.avi
Format : AVI
Format/Info : Audio Video Interleave
File size : 894 MiB
Duration : 1h 32mn
Overall bit rate : 1 348 Kbps
Writing library : VirtualDub build 32661/release

Video
ID : 0
Format : MPEG-4 Visual
Format profile : AdvancedSimple@L5
Format settings, BVOP : Yes
Format settings, QPel : No
Format settings, GMC : No warppoints
Format settings, Matrix : Default (H.263)
Codec ID : XVID
Codec ID/Hint : XviD
Duration : 1h 32mn
Bit rate : 1 175 Kbps
Width : 640 pixels
Height : 352 pixels
Display aspect ratio : 16:9
Frame rate : 29.970 fps
Resolution : 24 bits
Colorimetry : 4:2:0
Scan type : Progressive
Bits/(Pixel*Frame) : 0.174
Stream size : 779 MiB (87%)
Writing library : XviD 1.2.1 (UTC 2008-12-04)


Audio
ID : 1
Format : MPEG Audio
Format version : Version 1
Format profile : Layer 3
Codec ID : 55
Codec ID/Hint : MP3
Duration : 1h 32mn
Bit rate mode : Constant
Bit rate : 160 Kbps
Channel(s) : 2 channels
Sampling rate : 44.1 KHz
Resolution : 16 bits
Video delay : 33ms
Stream size : 106 MiB (12%)
Alignment : Aligned on interleaves
Interleave, duration : 26 ms (0.78 video frame)
Interleave, preload duration : 809 ms
		

